<svg width="301" height="74" viewBox="0 0 301 74" fill="none" xmlns="http://www.w3.org/2000/svg">
<path d="M9.08 73V17.608C9.08 12.616 10.52 8.648 13.4 5.704C16.344 2.696 20.504 1.192 25.88 1.192C27.864 1.192 29.752 1.448 31.544 1.96C33.4 2.408 34.968 3.144 36.248 4.168L33.464 11.176C32.504 10.408 31.416 9.832 30.2 9.44799C28.984 9 27.704 8.776 26.36 8.776C23.672 8.776 21.624 9.544 20.216 11.08C18.808 12.552 18.104 14.76 18.104 17.704V24.52L18.296 28.744V73H9.08ZM0.44 29.704V22.12H32.888V29.704H0.44ZM62.6218 73.576C57.5018 73.576 52.9578 72.456 48.9898 70.216C45.0218 67.976 41.8858 64.904 39.5818 61C37.2778 57.032 36.1258 52.552 36.1258 47.56C36.1258 42.504 37.2778 38.024 39.5818 34.12C41.8858 30.216 45.0218 27.176 48.9898 25C52.9578 22.76 57.5018 21.64 62.6218 21.64C67.6778 21.64 72.1898 22.76 76.1578 25C80.1898 27.176 83.3258 30.216 85.5658 34.12C87.8698 37.96 89.0218 42.44 89.0218 47.56C89.0218 52.616 87.8698 57.096 85.5658 61C83.3258 64.904 80.1898 67.976 76.1578 70.216C72.1898 72.456 67.6778 73.576 62.6218 73.576ZM62.6218 65.512C65.8858 65.512 68.7978 64.776 71.3578 63.304C73.9818 61.832 76.0298 59.752 77.5018 57.064C78.9738 54.312 79.7098 51.144 79.7098 47.56C79.7098 43.912 78.9738 40.776 77.5018 38.152C76.0298 35.464 73.9818 33.384 71.3578 31.912C68.7978 30.44 65.8858 29.704 62.6218 29.704C59.3578 29.704 56.4458 30.44 53.8858 31.912C51.3258 33.384 49.2778 35.464 47.7418 38.152C46.2058 40.776 45.4378 43.912 45.4378 47.56C45.4378 51.144 46.2058 54.312 47.7418 57.064C49.2778 59.752 51.3258 61.832 53.8858 63.304C56.4458 64.776 59.3578 65.512 62.6218 65.512ZM123.559 73.576C118.439 73.576 113.895 72.456 109.927 70.216C105.959 67.976 102.823 64.904 100.519 61C98.2153 57.032 97.0633 52.552 97.0633 47.56C97.0633 42.504 98.2153 38.024 100.519 34.12C102.823 30.216 105.959 27.176 109.927 25C113.895 22.76 118.439 21.64 123.559 21.64C128.615 21.64 133.127 22.76 137.095 25C141.127 27.176 144.263 30.216 146.503 34.12C148.807 37.96 149.959 42.44 149.959 47.56C149.959 52.616 148.807 57.096 146.503 61C144.263 64.904 141.127 67.976 137.095 70.216C133.127 72.456 128.615 73.576 123.559 73.576ZM123.559 65.512C126.823 65.512 129.735 64.776 132.295 63.304C134.919 61.832 136.967 59.752 138.439 57.064C139.911 54.312 140.647 51.144 140.647 47.56C140.647 43.912 139.911 40.776 138.439 38.152C136.967 35.464 134.919 33.384 132.295 31.912C129.735 30.44 126.823 29.704 123.559 29.704C120.295 29.704 117.383 30.44 114.823 31.912C112.263 33.384 110.215 35.464 108.679 38.152C107.143 40.776 106.375 43.912 106.375 47.56C106.375 51.144 107.143 54.312 108.679 57.064C110.215 59.752 112.263 61.832 114.823 63.304C117.383 64.776 120.295 65.512 123.559 65.512ZM183.729 73.576C178.801 73.576 174.385 72.488 170.481 70.312C166.641 68.136 163.601 65.096 161.361 61.192C159.121 57.288 158.001 52.744 158.001 47.56C158.001 42.376 159.121 37.864 161.361 34.024C163.601 30.12 166.641 27.08 170.481 24.904C174.385 22.728 178.801 21.64 183.729 21.64C188.017 21.64 191.889 22.6 195.345 24.52C198.801 26.44 201.553 29.32 203.601 33.16C205.713 37 206.769 41.8 206.769 47.56C206.769 53.32 205.745 58.12 203.697 61.96C201.713 65.8 198.993 68.712 195.537 70.696C192.081 72.616 188.145 73.576 183.729 73.576ZM184.497 65.512C187.697 65.512 190.577 64.776 193.137 63.304C195.761 61.832 197.809 59.752 199.281 57.064C200.817 54.312 201.585 51.144 201.585 47.56C201.585 43.912 200.817 40.776 199.281 38.152C197.809 35.464 195.761 33.384 193.137 31.912C190.577 30.44 187.697 29.704 184.497 29.704C181.233 29.704 178.321 30.44 175.761 31.912C173.201 33.384 171.153 35.464 169.617 38.152C168.081 40.776 167.313 43.912 167.313 47.56C167.313 51.144 168.081 54.312 169.617 57.064C171.153 59.752 173.201 61.832 175.761 63.304C178.321 64.776 181.233 65.512 184.497 65.512ZM201.873 73V59.272L202.449 47.464L201.489 35.656V1.768H210.705V73H201.873ZM228.142 73V22.12H237.358V73H228.142ZM232.75 12.328C230.958 12.328 229.454 11.752 228.238 10.6C227.086 9.448 226.51 8.04 226.51 6.376C226.51 4.648 227.086 3.208 228.238 2.056C229.454 0.903997 230.958 0.327997 232.75 0.327997C234.542 0.327997 236.014 0.903997 237.166 2.056C238.382 3.144 238.99 4.51999 238.99 6.184C238.99 7.912 238.414 9.384 237.262 10.6C236.11 11.752 234.606 12.328 232.75 12.328ZM277.611 73.576C272.171 73.576 267.371 72.456 263.211 70.216C259.115 67.976 255.915 64.904 253.611 61C251.371 57.096 250.251 52.616 250.251 47.56C250.251 42.504 251.339 38.024 253.515 34.12C255.755 30.216 258.795 27.176 262.635 25C266.539 22.76 270.923 21.64 275.787 21.64C280.715 21.64 285.067 22.728 288.843 24.904C292.619 27.08 295.563 30.152 297.675 34.12C299.851 38.024 300.939 42.6 300.939 47.848C300.939 48.232 300.907 48.68 300.843 49.192C300.843 49.704 300.811 50.184 300.747 50.632H257.451V44.008H295.947L292.203 46.312C292.267 43.048 291.595 40.136 290.187 37.576C288.779 35.016 286.827 33.032 284.331 31.624C281.899 30.152 279.051 29.416 275.787 29.416C272.587 29.416 269.739 30.152 267.243 31.624C264.747 33.032 262.795 35.048 261.387 37.672C259.979 40.232 259.275 43.176 259.275 46.504V48.04C259.275 51.432 260.043 54.472 261.579 57.16C263.179 59.784 265.387 61.832 268.203 63.304C271.019 64.776 274.251 65.512 277.899 65.512C280.907 65.512 283.627 65 286.059 63.976C288.555 62.952 290.731 61.416 292.587 59.368L297.675 65.32C295.371 68.008 292.491 70.056 289.035 71.464C285.643 72.872 281.835 73.576 277.611 73.576Z" fill="#3B82F6"/>
</svg>
